<svg xmlns="http://www.w3.org/2000/svg" width="800" height="400" viewBox="0 0 800 400">
  <defs>
    <linearGradient id="bg1" x1="0%" y1="0%" x2="100%" y2="100%">
      <stop offset="0%" style="stop-color:#0a0a0a"/>
      <stop offset="100%" style="stop-color:#022c22"/>
    </linearGradient>
    <linearGradient id="glow1" x1="0%" y1="0%" x2="100%" y2="100%">
      <stop offset="0%" style="stop-color:#22c55e;stop-opacity:0.3"/>
      <stop offset="100%" style="stop-color:#16a34a;stop-opacity:0"/>
    </linearGradient>
  </defs>
  <rect width="800" height="400" fill="url(#bg1)"/>
  <circle cx="400" cy="200" r="140" fill="url(#glow1)"/>
  <g transform="translate(400,200)" stroke="#22c55e" stroke-width="2" fill="none">
    <polygon points="0,-60 30,-20 30,20 0,60 -30,20 -30,-20" stroke-width="2.5" opacity="0.8"/>
    <circle cx="0" cy="0" r="5" fill="#22c55e"/>
    <circle cx="-40" cy="-30" r="4" fill="#4ade80" opacity="0.7"/>
    <circle cx="40" cy="-30" r="4" fill="#4ade80" opacity="0.7"/>
    <circle cx="-40" cy="30" r="4" fill="#4ade80" opacity="0.7"/>
    <circle cx="40" cy="30" r="4" fill="#4ade80" opacity="0.7"/>
    <line x1="0" y1="-15" x2="-40" y2="-30" stroke="#4ade80" stroke-width="1" opacity="0.4"/>
    <line x1="0" y1="-15" x2="40" y2="-30" stroke="#4ade80" stroke-width="1" opacity="0.4"/>
    <line x1="0" y1="15" x2="-40" y2="30" stroke="#4ade80" stroke-width="1" opacity="0.4"/>
    <line x1="0" y1="15" x2="40" y2="30" stroke="#4ade80" stroke-width="1" opacity="0.4"/>
    <line x1="-40" y1="-30" x2="-40" y2="30" stroke="#4ade80" stroke-width="0.8" opacity="0.3"/>
    <line x1="40" y1="-30" x2="40" y2="30" stroke="#4ade80" stroke-width="0.8" opacity="0.3"/>
  </g>
  <text x="400" y="340" font-family="monospace" font-size="14" fill="#22c55e" text-anchor="middle" opacity="0.8" letter-spacing="3">AI AGENTS &amp; DEVELOPMENT</text>
</svg>