<svg xmlns="http://www.w3.org/2000/svg" width="800" height="400" viewBox="0 0 800 400">
  <defs>
    <linearGradient id="bg3" x1="0%" y1="0%" x2="100%" y2="100%">
      <stop offset="0%" style="stop-color:#0a0a0a"/>
      <stop offset="100%" style="stop-color:#2e1065"/>
    </linearGradient>
    <linearGradient id="glow3" x1="0%" y1="0%" x2="100%" y2="100%">
      <stop offset="0%" style="stop-color:#a855f7;stop-opacity:0.3"/>
      <stop offset="100%" style="stop-color:#7e22ce;stop-opacity:0"/>
    </linearGradient>
  </defs>
  <rect width="800" height="400" fill="url(#bg3)"/>
  <circle cx="400" cy="200" r="140" fill="url(#glow3)"/>
  <g transform="translate(400,200)" fill="none" stroke="#a855f7" stroke-width="2">
    <rect x="-55" y="-55" width="110" height="110" rx="8" opacity="0.6"/>
    <circle cx="0" cy="-18" r="15" stroke-width="2" opacity="0.8"/>
    <circle cx="0" cy="-18" r="5" fill="#a855f7" opacity="0.4"/>
    <path d="M-30,18 Q0,-10 30,18" stroke-width="2" opacity="0.7"/>
    <path d="M-30,18 Q0,30 30,18" stroke-width="1.5" opacity="0.4"/>
    <line x1="-40" y1="-40" x2="-50" y2="-50" stroke-width="1" opacity="0.5"/>
    <line x1="40" y1="-40" x2="50" y2="-50" stroke-width="1" opacity="0.5"/>
    <line x1="-40" y1="40" x2="-50" y2="50" stroke-width="1" opacity="0.5"/>
    <line x1="40" y1="40" x2="50" y2="50" stroke-width="1" opacity="0.5"/>
    <circle cx="-50" cy="-50" r="2" fill="#c084fc"/>
    <circle cx="50" cy="-50" r="2" fill="#c084fc"/>
    <circle cx="-50" cy="50" r="2" fill="#c084fc"/>
    <circle cx="50" cy="50" r="2" fill="#c084fc"/>
  </g>
  <text x="400" y="340" font-family="monospace" font-size="14" fill="#a855f7" text-anchor="middle" opacity="0.8" letter-spacing="3">GSAP &amp; LENIS ANIMATIONS</text>
</svg>