<svg xmlns="http://www.w3.org/2000/svg" width="800" height="400" viewBox="0 0 800 400">
  <defs>
    <linearGradient id="bg2" x1="0%" y1="0%" x2="100%" y2="100%">
      <stop offset="0%" style="stop-color:#0a0a0a"/>
      <stop offset="100%" style="stop-color:#0f172a"/>
    </linearGradient>
    <linearGradient id="glow2" x1="0%" y1="0%" x2="100%" y2="100%">
      <stop offset="0%" style="stop-color:#3b82f6;stop-opacity:0.3"/>
      <stop offset="100%" style="stop-color:#2563eb;stop-opacity:0"/>
    </linearGradient>
  </defs>
  <rect width="800" height="400" fill="url(#bg2)"/>
  <circle cx="400" cy="200" r="140" fill="url(#glow2)"/>
  <g transform="translate(400,200)" fill="none" stroke="#3b82f6" stroke-width="2">
    <rect x="-50" y="-65" width="100" height="130" rx="10" opacity="0.8"/>
    <rect x="-35" y="-15" width="70" height="20" rx="3" fill="#3b82f6" opacity="0.2"/>
    <rect x="-35" y="10" width="70" height="4" rx="2" opacity="0.5"/>
    <rect x="-35" y="20" width="50" height="4" rx="2" opacity="0.3"/>
    <rect x="-35" y="30" width="60" height="4" rx="2" opacity="0.4"/>
    <path d="M-35,-40 L-45,-50 M-35,-40 L-25,-50" stroke-width="1.5" opacity="0.6"/>
    <path d="M35,-40 L25,-50 M35,-40 L45,-50" stroke-width="1.5" opacity="0.6"/>
    <circle cx="-35" cy="-40" r="3" fill="#3b82f6"/>
    <circle cx="35" cy="-40" r="3" fill="#3b82f6"/>
    <circle cx="-45" cy="-50" r="2" fill="#60a5fa"/>
    <circle cx="-25" cy="-50" r="2" fill="#60a5fa"/>
    <circle cx="25" cy="-50" r="2" fill="#60a5fa"/>
    <circle cx="45" cy="-50" r="2" fill="#60a5fa"/>
  </g>
  <text x="400" y="340" font-family="monospace" font-size="14" fill="#3b82f6" text-anchor="middle" opacity="0.8" letter-spacing="3">NEXT.JS &amp; SUPABASE AUTH</text>
</svg>